<svg xmlns="http://www.w3.org/2000/svg" width="1280" height="1264" fill-rule="evenodd" xmlns:v="https://vecta.io/nano"><path d="M645.75 115.732c2.337.211 6.163.211 8.5 0s.425-.383-4.25-.383-6.587.173-4.25.383m-357.5 18.406c-3.437 2.267-6.25 4.545-6.25 5.063s.634.308 1.408-.467 3.7-2.878 6.5-4.675c4.354-2.794 5.902-4.088 4.842-4.05-.137.005-3.062 1.863-6.5 4.129m-35.527 126.637c-3.698 3.726-6.723 7.115-6.723 7.531 0 .751 10.25-9.26 12.872-12.572 2.777-3.507.402-1.56-6.149 5.041M67.254 410.787c-2.921 6.221-14.126 35.52-15.761 41.213-.491 1.711-.392 2.184.315 1.5.568-.55 2.255-4.825 3.748-9.5s3.508-10.3 4.477-12.5l3.077-7.178c.723-1.748 1.738-2.916 2.257-2.595s.614.052.214-.596c-.907-1.467 2.356-10.288 3.536-9.559.473.293.606-.131.295-.942s-.045-2.447.592-3.638.988-2.333.78-2.541-1.796 2.643-3.53 6.336M27.355 614.5c-.003 4.95.166 7.101.376 4.78s.212-6.371.005-9-.378-.73-.381 4.22m1249.302 5.75c-.774 13.433-.653 31.405.282 41.75.407 4.505.727-4.58.803-22.75l-.156-30.25c-.154 0-.572 5.063-.929 11.25m-4.223 15.25c-.001 13.75.14 19.514.313 12.808s.173-17.955.001-25-.314-1.558-.314 12.192m-93.023 5.5c0 9.625.15 13.563.334 8.75s.183-12.687 0-17.5-.334-.875-.334 8.75M15.297 682l-.01 11.5.903-7.314c.531-4.308.535-9.034.01-11.5-.717-3.357-.895-1.909-.903 7.314m1259.873-4c.016 2.475.39 5.625.83 7 .632 1.972.807 1.444.83-2.5.016-2.75-.357-5.9-.83-7-.645-1.501-.852-.877-.83 2.5m-.971 14.5c0 2.2.361 5.125.801 6.5.684 2.136.801 1.918.801-1.5 0-2.2-.361-5.125-.801-6.5-.684-2.136-.801-1.918-.801 1.5m-19.212 112.556c-.667 2.779-.937 5.328-.6 5.665s.613-.363.613-1.554.498-2.167 1.107-2.167.828-.728.483-1.627-.145-2.204.441-2.911c.656-.79.701-1.51.117-1.871-.522-.322-1.495 1.687-2.161 4.465m-12.898 42.041c-.675 2.254-.982 4.343-.682 4.643.579.579 1.595-1.549 1.974-4.133.125-.852.541-1.862.923-2.245.96-.96.874-2.362-.146-2.362-.463 0-1.394 1.844-2.069 4.097M105 852.171c0 .61 4.863 12.544 7.303 17.921l5.13 11.317c1.971 4.349 3.812 7.679 4.092 7.399s-1.524-4.829-4.008-10.11S113 868.847 113 868.543s-1.125-2.885-2.5-5.735-2.514-5.661-2.532-6.245c-.032-1.074-2.968-5.418-2.968-4.392m1133.099 7.003c-1.147 3.395-1.908 6.35-1.692 6.567s.948-1.325 1.625-3.424 1.496-4.267 1.82-4.817.713-1.788.863-2.75c.547-3.511-.58-1.605-2.616 4.424M1233 871.846c0 1.016-.636 3.153-1.413 4.75s-3.507 8.02-6.066 14.273l-5.542 13c-.49.897-4.908 9.731-9.818 19.631s-10.611 20.925-12.668 24.5l-6.281 11c-7.15 12.659-15.006 24.469-16.113 24.225-.686-.151-.95.206-.587.794s-.064 2.174-.949 3.525-1.26 2.456-.834 2.456 2.964-3.594 5.639-7.987 5.211-7.773 5.635-7.511.709-.306.634-1.263.455-1.616 1.187-1.464 1.045-.177.704-.73c-.605-.979 1.065-5.048 2.482-6.045.391-.275 1.468-1.977 2.393-3.783s2.108-3.019 2.628-2.698c.539.333.663-.154.288-1.131-.483-1.256-.304-1.497.666-.898.891.552 1.086.433.594-.362-.414-.67 2.521-7.112 6.791-14.904 8.644-15.776 17.347-33.876 25.59-53.224 6.907-16.213 7.513-18 6.107-18-.587 0-1.067.831-1.067 1.846M88.63 897.523c-.334.869-.262 1.367.161 1.106s2.319 2.529 4.216 6.198c10.229 19.792 33.818 60.491 36.035 62.173.362.275 1.248 1.625 1.969 3 2.499 4.77 16.165 23.505 17.823 24.434 1.364.765-2.695-5.548-4.781-7.434-.304-.275-1.003-1.27-1.553-2.212s-4.372-6.566-8.492-12.5c-10.006-14.407-27.704-44.065-34.784-58.288-3.148-6.325-6.062-11.65-6.474-11.833s-.764-.859-.782-1.5-.639-1.968-1.382-2.946c-1.196-1.578-1.418-1.6-1.956-.198m64.463 103.727l4.927 6.033c.356.431.647.094.647-.75s-.347-1.533-.772-1.533-2.225-2.025-4.002-4.5-3.648-4.5-4.156-4.5 1.003 2.362 3.356 5.25m59.907 5.776c5.716 6.902 41.717 43.062 49 49.217l9.776 8.343c2.352 2.032 4.504 3.467 4.782 3.189s-3.446-3.819-8.276-7.868c-11.844-9.929-28.356-25.979-27.744-26.968.272-.44-.032-1.126-.676-1.524-.731-.452-.903-.291-.457.43.392.635.401 1.155.02 1.155-1.323 0-20.924-21.383-20.788-22.677.075-.716-.217-1.083-.649-.815s-2.101-1.011-3.707-2.841c-4.982-5.674-6.034-5.38-1.281.359m-37.969 3.474c.782 1.1 2.448 3.276 3.702 4.835s2.019 3.257 1.699 3.774-.157.817.36.666 4.392 3.663 8.611 8.475 7.914 8.75 8.212 8.75-1.119-1.912-3.147-4.25L183.734 1020c-7.426-8.958-11.404-13.3-8.703-9.5M226.5 1057c7.685 7.7 14.198 14 14.473 14s-5.788-6.3-13.473-14-14.198-14-14.473-14 5.788 6.3 13.473 14m-38.5 13.275c0 .151 3.488 3.639 7.75 7.75l7.75 7.475-7.475-7.75c-6.943-7.198-8.025-8.206-8.025-7.475m216.143 69.608c4.203 2.076 11.853 5.47 17 7.543l10.607 4.278c.688.281 1.25.123 1.25-.35s-2.884-1.867-6.408-3.097a180.61 180.61 0 0 1-12.75-5.13c-17.028-7.77-22.717-9.673-9.699-3.244m228.607 49.849c2.337.211 6.163.211 8.5 0s.425-.383-4.25-.383-6.587.173-4.25.383M674.5 1203c2.75.403 5.428.343 5.95-.134.544-.496-1.59-.809-5-.732l-5.95.133 5 .733m-56.25 7.739a111.4 111.4 0 0 0 11.5 0c3.163-.198.575-.361-5.75-.361s-8.913.163-5.75.361m23 44a111.4 111.4 0 0 0 11.5 0c3.163-.198.575-.361-5.75-.361s-8.913.163-5.75.361m-.97 3.997c2.629.207 6.679.204 9-.005s.17-.379-4.78-.376-6.849.175-4.22.381m-6.491 3.005c3.459.196 8.859.195 12-.003s.311-.358-6.289-.356-9.17.164-5.711.359" fill="#fc5d3b"/><path d="M588.5 1.078L566.598 3.5c-9.013.993-14.287 2.016-15 2.907-.652.816-4.145 1.644-8.598 2.036-20.734 1.829-64.251 11.484-92.374 20.496L425 37.001c-42.338 13.101-92.889 37.015-134.128 63.451-20.161 12.924-25.824 17.021-60.372 43.679-10.875 8.391-23.171 18.857-27.953 23.79-4.195 4.329-3.925 5.607.389 1.838 1.41-1.232 1.013-.557-.882 1.5-3.865 4.195-4.261 4.443-3.363 2.105.373-.973.184-1.48-.466-1.25-1.813.64-17.323 16.121-16.738 16.706.299.299 2.224-.998 4.278-2.881s1.502-1.066-1.227 1.818c-4.643 4.905-7.356 7.138-4.518 3.719.696-.838.96-1.829.587-2.202-.853-.853-26.533 24.62-39.546 39.226-13.715 15.396-29.889 35.821-41.061 51.854C88.476 296.893 72.932 321.493 69.262 329c-1.479 3.025-3.043 5.65-3.475 5.833s-.787.756-.787 1.272-2.87 7.116-6.378 14.667L38.489 395c-5.452 12.756-13.784 36.691-18.45 53l-5.595 19.5c-2.758 9.54-9.353 43.222-11.892 60.736C.285 543.874.011 548.841.1 572.671c.1 26.921.461 31.349 2.619 32.069 1.408.469 3.995-4.277 4.79-8.789.318-1.805.761-3.578.984-3.94s.891-3.324 1.482-6.584L12.925 570l1.874-9.5-.326 21.5c-.341 22.473.348 34.221 2.111 35.984 2.019 2.019 6.381-6.601 7.782-15.379l1.293-8.105.21 16c.229 17.353 1.108 26.555 2.541 26.589 1.834.043 3.562-7.88 4.218-19.339.498-8.701 1.013-11.75 1.987-11.75.723 0 1.736-.788 2.251-1.75 1.937-3.621 6.129-21.37 9.152-38.75l4.544-25.5 1.869-10c1.816-9.941 9.839-43.063 10.316-42.586.21.209-.038 2.687-.551 5.506-.634 3.49-.593 5.334.127 5.78.583.36 1.243.101 1.469-.576.285-.855.792-.707 1.664.485 1.921 2.627 4.05 1.1 7.068-5.069 1.509-3.083 3.021-5.329 3.36-4.99s.465 8.418.28 17.952c-.285 14.716-.079 17.876 1.364 20.916.935 1.97 2.264 3.582 2.953 3.582 1.398 0 4.744-8.628 15.798-40.74.721-2.093 1.38-2.811 1.864-2.029.411.666.944.999 1.184.74s4.354-8.796 9.144-18.971c9.909-21.051 20.088-40.769 28.829-55.849 4.882-8.421 5.738-10.534 4.6-11.344-1.131-.804-1.086-.896.231-.478 1.147.363 2.621-1.021 4.958-4.656 9.76-15.18 42.754-59.863 61.436-83.202 12.284-15.345 33.502-39.367 41.047-46.471l4.779-4.5-3.047 4c-5.255 6.899-11.975 17.843-13.388 21.805-1.157 3.241-1.148 3.933.054 4.677 2.596 1.604 6.487-1.172 31.53-22.493 48.386-41.195 87.463-69.338 126-90.742 12.39-6.882 42.635-21.345 55.5-26.54 63.556-25.665 130.93-38.754 199-38.658 16.047.022 42.824 1.112 45.064 1.834.79.254 4.827.701 8.972.994 7.019.494 9.947.821 18.964 2.113 17.656 2.53 31.436 5.152 47.5 9.037l12 2.878c.55.119 1.9.51 3 .867s3.156.848 4.569 1.09c4.968.851 44.905 14.577 58.59 20.137 26.53 10.779 53.264 24.768 88.559 46.34 22.611 13.819 57.924 42.416 83.714 67.791 9.037 8.892 16.99 15.953 17.673 15.691s1.792.571 2.464 1.851c1.218 2.32 1.215 2.322-.923.423-4.33-3.844-1.957-.279 5.13 7.706 41.928 47.247 75.342 102.819 98.737 164.211 16.388 43.004 26.886 90.128 31.519 141.488 1.615 17.899 1.818 62.357.364 79.5-.778 9.172-4.352 39.245-5.437 45.75-1.246 7.47-1.757 10.127-4.085 21.25-12.4 59.233-36.411 121.118-66.144 170.475-13.998 23.237-23.773 37.378-39.918 57.745-7.923 9.995-11.101 14.749-10.698 16 .409 1.267.308 1.41-.349.497-.68-.945-3.119 1.166-9.243 8-20.365 22.724-49.701 50.011-75.367 70.102-14.013 10.969-47.55 33.044-65.155 42.887-12.834 7.176-39.704 20.794-41.028 20.794-.235 0-3.758 1.559-7.828 3.465-17.817 8.341-54.621 20.985-78.842 27.085-25.887 6.519-64.487 13.276-88.302 15.457l-31 2.542c-6.773.365-59.121.335-63.5-.037l-32.648-2.991c-1.182-.193-4.782-.655-8-1.025-21.912-2.522-62.301-11.433-86.852-19.161-32.276-10.16-57.147-20.191-86.857-35.033-16.289-8.136-21.395-9.728-15.143-4.719 4.998 4.004 51.963 26.981 68.5 33.512 20.684 8.17 47.136 16.787 65.5 21.338l18.5 4.646c1.925.511 4.625 1.118 6 1.35s7.225 1.326 13 2.432c38.245 7.327 62.314 9.484 106 9.501 26.42.009 39.72-.424 52-1.693 18.802-1.943 40.992-5.017 52-7.204l10-1.944c17.374-3.158 58.322-14.522 76.5-21.229l18.738-6.904c2.056-.754 8.356-3.348 14-5.767 52.559-22.521 97.598-50.668 144.705-90.435 12.281-10.367 48.521-45.771 59.049-57.686 2.916-3.3 4.595-4.936 3.73-3.635s-1.38 2.875-1.147 3.5c.867 2.323-30.741 36.377-52.075 56.104-26.725 24.712-63.059 52.086-89.5 67.429l-7.462 4.397c-7.595 4.664-11.365 6.724-21.538 11.767-44.317 21.968-105.376 41.113-154.5 48.441-18.099 2.701-36.293 4.614-52 5.468l-38 2.132c-41.477 2.397-57.838 1.832-92-3.179-10.977-1.61-41.046-7.253-50.5-9.477-19.91-4.684-65.623-19.566-79.5-25.882-1.65-.751-7.033-3.022-11.962-5.048-13.366-5.493-43.35-20.397-57.538-28.601l-14.5-8.358c-9.365-5.293-37.5-24.487-50.5-34.451-28.62-21.936-45.045-36.77-72.665-65.628-24.534-25.632-38.304-42.374-55.295-67.229-5.766-8.435-8.04-10.795-8.04-8.345 0 .85 10.016 16.141 17.093 26.095 4.067 5.719 21.668 27.406 27.587 33.989 2.479 2.757 4.888 4.778 5.353 4.49s2.561 1.396 4.657 3.741c15.044 16.832 37.966 39.424 53.163 52.398 5.596 4.778 9.956 8.907 9.687 9.175s-2.412-1.175-4.764-3.207l-9.776-8.384c-7.181-6.122-37.775-36.61-46.324-46.163-3.672-4.103-6.676-7.003-6.676-6.445 0 1.645 21.499 24.75 37.597 40.406 41.246 40.113 90.016 74.324 142.192 99.745l18.315 8.79 12.651 5.412c5.64 2.407 10.082 4.549 9.871 4.761-.485.484-25.372-10.141-36.503-15.585-5.72-2.797-9.21-3.938-11-3.595-2.059.395-2.205.321-.679-.344 1.595-.694-.188-1.952-9.942-7.014-8.974-4.657-12.106-5.862-12.788-4.919-.648.896-.758.793-.392-.364.65-2.054-6.309-6.165-8.971-5.3-1.411.459-1.522.367-.466-.385 1.115-.795.921-1.231-1-2.241-1.312-.69-6.956-4.114-12.544-7.608-10.441-6.53-11.982-7.262-10.74-5.103.418.726.338.901-.191.417-.5-.459-.921-1.359-.934-2s-.783-1.107-1.711-1.035-1.592-.321-1.476-.875-.414-1.234-1.178-1.512c-.851-.309-1.119-.067-.691.625.384.622.202 1.13-.405 1.13s-.97-.686-.809-1.523-1.116-2.424-2.84-3.525c-2.672-1.707-3.218-1.781-3.708-.503-.408 1.063 2.273 3.394 9.229 8.025 10.1 6.724 12.361 7.805 9.985 4.776-1.242-1.584-1.207-1.62.367-.387.956.75 1.507 1.739 1.224 2.198-.649 1.049 21.455 14.249 40.537 24.208 15.317 7.995 37.608 18.205 53.788 24.639 20.78 8.263 63.078 21.471 78.424 24.489 1.259.248 6.113 1.368 10.788 2.491 10.757 2.582 33.798 6.503 50 8.507 31.737 3.926 46.861 4.846 81.5 4.958 25.49.082 30.952.305 24 .977-11.383 1.101-77.446 1.415-87.687.417L544 1202.471c-13.262-2.028-17.514-2.747-24-4.058-56.482-11.418-122.741-38.067-176-70.785-10.535-6.472-16.578-10.444-33.5-22.022-6.443-4.408-31.69-23.9-37.571-29.006l-6.5-5.51c-11.962-9.842-44.822-42.213-57.952-57.09-22.827-25.866-47.162-59.487-65.142-90-8.381-14.224-10.003-17.211-17.164-31.614-12.213-24.567-16.968-35.545-26.142-60.367-3.35-9.065-6.512-16.902-7.027-17.417-4.376-4.376 2.074 17.388 13.454 45.398 7.34 18.066 16.086 37.065 24.079 52.304 5.207 9.928 5.784 10.657 7.121 9 1.332-1.652 1.36-1.611.339.493-.963 1.982-.47 3.424 3.588 10.5 20.676 36.056 48.915 74.494 77.362 105.302 3.605 3.905 1.942 2.336-3.695-3.487s-10.25-10.119-10.25-9.549.563 1.678 1.25 2.46.227.569-1.024-.476c-1.54-1.287-1.903-2.129-1.124-2.61.759-.469-.203-2.189-2.838-5.073-6.663-7.294-26.259-32.612-35.897-46.377-18.886-26.976-30.993-47.705-49.637-84.987-14.2-28.396-17.848-34.707-19.257-33.304-.955.952 1.179 9.447 4.619 18.38 1.569 4.073 2.601 8.059 2.295 8.857s2.998 8.406 7.342 16.907 7.255 15.207 6.469 14.906c-1.472-.565-6.171-9.719-6.188-12.055-.006-.734-.517-.996-1.165-.596-.68.421-.884.277-.496-.35 1.088-1.761-.373-4.164-2.182-3.588-1.212.387-1.318.28-.389-.389.984-.709.006-3.433-4.251-11.844-11.236-22.202-26.255-63.664-33.542-92.597-1.154-4.58-2.526-9.677-3.05-11.327-1.805-5.684-7.816-36.03-9.905-50L53.518 715c-.231-.825-.697-5.55-1.037-10.5s-.785-9.675-.99-10.5c-.665-2.68-1.74-20.091-2.373-38.419-.488-14.14-.916-18.018-2.03-18.387-1.2-.398-1.313 2.811-.755 21.419.867 28.924 4.504 63.082 9.235 86.733l2.904 15.154c3.066 16.642 12.791 51.718 19.547 70.5l4.956 14c10.27 31.357 38.692 87.185 62.328 122.427 3.293 4.91 6.046 9.635 6.118 10.5.307 3.713 7.489 14.624 20.452 31.073l8.057 10c.313.275 2.134 2.525 4.045 5l3.475 4.5-3.302-2.75c-5.381-4.482-8.091-3.11-4.5 2.277 2.894 4.342-.78.236-11.209-12.527-45.005-55.078-80.12-117.067-104.279-184.089-3.388-9.4-6.16-17.612-6.16-18.25S57.55 812 57 812c-2.635 0 .004 9.181 11.209 39 24.475 65.131 61.706 127.806 108.114 182 12.944 15.115 38.528 42 39.968 42 .624 0-1.099-2.348-3.829-5.219l-4.962-5.219 5.503 4.969c3.282 2.963 5.098 5.283 4.5 5.748-.61.474.209 1.845 2.089 3.5l14 12.654c11.032 10.046 40.924 34.196 58.459 47.228 52.414 38.957 116.917 71.858 177.184 90.377 14.29 4.391 45.17 12.553 50.808 13.429 1.901.295 7.957 1.454 13.457 2.574s15.175 2.873 21.5 3.893 10.483 1.903 9.239 1.961c-2.521.117-16.318-1.978-32.239-4.896l-13-2.376c-10.398-1.876-23.853-5.077-42-9.992-35.607-9.645-76.979-25.493-110.328-42.265-8.932-4.491-13.489-6.266-15-5.843-1.547.433-1.778.335-.803-.34 1.019-.706-.902-2.181-7.5-5.761-4.878-2.647-12.822-7.2-17.654-10.118s-9.013-5.304-9.291-5.304-1.724-.852-3.214-1.893-8.335-5.601-15.21-10.133C231.68 1108.258 168.701 1045.538 124.308 979c-25.085-37.6-42.086-69.273-59.78-111.371C43.677 818.017 29.01 761.869 22.437 706.5l-2.025-17c-1.862-15.359-3.633-22.1-5.502-20.945-1.233.763-1.101 28.684.192 40.445 3.851 35.027 14.683 84.585 26.555 121.5 20.143 62.631 53.114 126.628 91.704 178 16.73 22.272 32.399 40.898 31.173 37.056-.605-1.895-.569-1.898 1.423-.095 2.431 2.2 2.567 2.677.543 1.901-.825-.317-1.5-.146-1.5.379 0 1.692 40.076 42.229 53.566 54.182 16.639 14.743 16.298 14.459 33.106 27.544 23.548 18.333 25.436 19.625 27.738 18.984 1.523-.424 1.715-.323.709.373-1.482 1.026 8.588 8.206 30.368 21.652 55.661 34.366 122.085 61.634 187.513 76.976 16.898 3.963 33.597 7.255 43.5 8.577l9.5 1.388c3.087.559 19.733 2.536 26.5 3.147l9.5.916c23.346 2.407 68.212 2.897 91.5.999l13-1.006c10.391-.779 17.046-1.382 22-1.994l9-1.015c23.578-2.457 57.31-9.222 88-17.648 83.786-23.004 164.094-64.192 230-117.959l15.5-12.912 11-9.751c10.12-8.945 35.486-34.398 46.535-46.694 25.573-28.459 53.379-65.89 70.944-95.5 30.971-52.209 56.713-113.979 70.013-168l3.454-13.5c.858-2.966 3.473-15.191 4.492-21 4.251-24.228 6.59-39.029 7.654-48.423.711-6.283 1.472-10.884 1.692-10.226.356 1.07-2.43 28.651-3.4 33.649-.213 1.1-1.077 6.275-1.92 11.5l-2.05 12-1.934 10c-7.855 41.618-21.524 85.947-39.485 128.051-14.208 33.306-28.309 59.678-51.452 96.225-6.541 10.331-7.851 14.123-3.527 10.209 2.048-1.853 15.984-21.839 15.984-22.922 0-.322 1.747-3.168 3.882-6.324s4.847-7.539 6.026-9.739a199.05 199.05 0 0 1 4.263-7.5c4.61-7.614 14.37-26.139 20.021-38 31.29-65.677 51.02-135.823 58.364-207.5l1.514-14c.55-4.95 1.255-24.75 1.565-44 .44-27.247.212-39.32-1.027-54.5-2.359-28.903-2.5-30.259-4.674-44.958L1271.451 532c-1.503-10.955-9.723-47-15.507-68-5.475-19.873-18.883-56.901-27.111-74.865-1.671-3.647-4.385-10.682-6.031-15.633-22.206-66.773-85.674-158.944-146.275-212.426-12.48-11.014-39.206-32.564-47.842-38.576l-11.835-8.349C1003.256 104.444 969.265 84 966.719 84c-.57 0-8.503-3.731-17.628-8.292C925.935 64.136 921.449 62.201 877 44.623c-35.87-14.186-46.783-17.939-70-24.074-23.673-6.256-36.396-9.065-54-11.922-23.266-3.775-28.487-4.506-40.5-5.676-6.05-.589-12.575-1.321-14.5-1.627C691.932.36 596.878.146 588.5 1.078M309.972 101.802c-25.23 15.346-40.131 25.479-60.472 41.122-26.983 20.752-56.17 47.13-69.238 62.576-4.401 5.201-5.852 7.332-3.439 5.047 4.934-4.67 5.589-3.687.936 1.405-1.782 1.952-.657 1.088 2.5-1.918s5.741-5.663 5.741-5.905-.903.378-2.006 1.377c-3.821 3.458-3.347.439.571-3.634 8.912-9.266 35.367-33.636 47.232-43.511 24.412-20.314 55.88-42.499 83.453-58.832 8.463-5.013 10.662-6.529 9.472-6.529-.153 0-6.791 3.961-14.75 8.802M288.5 133.994c-3.779 2.512-6.042 4.722-6.112 5.971-.062 1.09.256 1.755.706 1.477s.614-1.054.364-1.724 2.233-2.948 5.543-5.078c5.159-3.32 6.809-4.65 5.749-4.637-.137.002-2.95 1.798-6.25 3.991m-38.887 32.226c-19.5 15.968-40.657 35.779-58.597 54.868-18.214 19.382-7.482 9.71 16.638-14.995 9.984-10.226 18.531-18.222 18.991-17.768s.055 1.264-.903 1.8-1.742 1.472-1.742 2.08.916.276 2.035-.737 1.811-2.428 1.536-3.144c-.532-1.386 12.505-13.455 28.179-26.087 8.089-6.52 10.018-8.282 9-8.222-.137.008-6.949 5.5-15.137 12.205m3.11 94.555c-3.698 3.726-6.723 7.116-6.723 7.533s1.601-.842 3.557-2.798 4.051-3.252 4.655-2.879c.676.418.811.215.351-.53-.425-.687.047-1.938 1.097-2.904 2.187-2.013 4.752-5.197 4.186-5.197-.22 0-3.425 3.049-7.123 6.775M103.39 331.75l-7.939 13.316c-10.097 16.101-43.108 90.611-41.053 92.665.221.222.959-1.315 1.64-3.414C59.866 422.502 81.238 376 82.84 376c.486 0 2.31-3.401 4.056-7.559s6.369-14.096 10.276-22.085c5.168-10.568 7.365-14.163 8.06-13.192s.791.826.344-.544c-.371-1.136.401-3.611 1.948-6.25 1.408-2.404 2.337-4.37 2.064-4.37s-3.062 4.387-6.198 9.75m-36.136 79.037c-2.921 6.221-14.126 35.52-15.761 41.213-.491 1.711-.392 2.184.315 1.5.568-.55 2.255-4.825 3.748-9.5s3.508-10.3 4.477-12.5l3.077-7.178c.723-1.748 1.738-2.916 2.257-2.595s.614.052.214-.596c-.907-1.467 2.356-10.288 3.536-9.559.473.293.606-.131.295-.942s-.045-2.447.592-3.638.988-2.333.78-2.541-1.796 2.643-3.53 6.336M39.612 503.75c-2.417 11.251-5.382 27.871-7.626 42.75l-2.449 15.75c-.268 1.513-.143 2.75.277 2.75s2.008-7.987 3.529-17.75c2.347-15.065 5.321-32.02 6.973-39.75.918-4.298 1.785-11.5 1.383-11.5-.232 0-1.172 3.488-2.087 7.75M27.355 614.5c-.003 4.95.166 7.101.376 4.78s.212-6.371.005-9-.378-.73-.381 4.22m1249.302 5.75c-.774 13.433-.653 31.405.282 41.75.407 4.505.727-4.58.803-22.75l-.156-30.25c-.154 0-.572 5.063-.929 11.25m-4.223 15.25c-.001 13.75.14 19.514.313 12.808s.173-17.955.001-25-.314-1.558-.314 12.192m-93.023 5.5c0 9.625.15 13.563.334 8.75s.183-12.687 0-17.5-.334-.875-.334 8.75M15.297 682l-.01 11.5.903-7.314c.531-4.308.535-9.034.01-11.5-.717-3.357-.895-1.909-.903 7.314m1259.873-4c.016 2.475.39 5.625.83 7 .632 1.972.807 1.444.83-2.5.016-2.75-.357-5.9-.83-7-.645-1.501-.852-.877-.83 2.5m-.971 14.5c0 2.2.361 5.125.801 6.5.684 2.136.801 1.918.801-1.5 0-2.2-.361-5.125-.801-6.5-.684-2.136-.801-1.918-.801 1.5m-19.212 112.556c-.667 2.779-.937 5.328-.6 5.665s.613-.363.613-1.554.498-2.167 1.107-2.167.828-.728.483-1.627-.145-2.204.441-2.911c.656-.79.701-1.51.117-1.871-.522-.322-1.495 1.687-2.161 4.465m-12.898 42.041c-.675 2.254-.982 4.343-.682 4.643.579.579 1.595-1.549 1.974-4.133.125-.852.541-1.862.923-2.245.96-.96.874-2.362-.146-2.362-.463 0-1.394 1.844-2.069 4.097M105 852.171c0 .61 4.863 12.544 7.303 17.921l5.13 11.317c1.971 4.349 3.812 7.679 4.092 7.399s-1.524-4.829-4.008-10.11S113 868.847 113 868.543s-1.125-2.885-2.5-5.735-2.514-5.661-2.532-6.245c-.032-1.074-2.968-5.418-2.968-4.392m1133.099 7.003c-1.147 3.395-1.908 6.35-1.692 6.567s.948-1.325 1.625-3.424 1.496-4.267 1.82-4.817.713-1.788.863-2.75c.547-3.511-.58-1.605-2.616 4.424M1233 871.846c0 1.016-.636 3.153-1.413 4.75s-3.507 8.02-6.066 14.273l-5.542 13c-.49.897-4.908 9.731-9.818 19.631s-10.61 20.925-12.667 24.5l-5.722 10c-2.796 4.935-14.335 23.765-17.312 28.25-1.369 2.063-2.145 3.747-1.725 3.743s3.915-5.208 7.765-11.566 7.489-12.099 8.086-12.758c2.026-2.235 20.676-36.958 27.138-50.526 6.293-13.212 17.288-38.433 18.699-42.893.434-1.373.296-2.25-.356-2.25-.587 0-1.067.831-1.067 1.846M89 896.434c0 .773 10.378 20.854 15.796 30.566 4.321 7.745 23.554 39.475 24.246 40 .362.275 1.248 1.625 1.969 3 2.499 4.77 16.165 23.505 17.823 24.434 1.364.765-2.695-5.548-4.781-7.434-.304-.275-1.003-1.27-1.553-2.212s-4.372-6.566-8.492-12.5c-10.006-14.407-27.704-44.065-34.784-58.288-3.148-6.325-6.062-11.65-6.474-11.833s-.764-.859-.782-1.5c-.036-1.318-2.968-5.499-2.968-4.233m33.505 25.142c2.023 3.616 3.424 6.828 3.115 7.138-1.721 1.72 21.261 37.547 41.237 64.286l12.114 16c.294.275 4.558 5.225 9.477 11 25.981 30.508 62.222 65.228 88.561 84.845l4.491 3.344-4-3.596c-2.2-1.979-3.876-4.08-3.725-4.669s-.203-.778-.787-.417c-1.827 1.129-23.563-18.041-47.038-41.486-31.352-31.311-51.456-55.749-74.469-90.521-10.308-15.576-14.437-22.355-27.258-44.75-2.44-4.263-4.652-7.75-4.916-7.75s1.176 2.959 3.198 6.576M167 957.482c0 2.971 18.368 27.255 37.454 49.518 11.921 13.906 40.316 42.78 54.046 54.959 16.603 14.727 38.821 32.132 40.296 31.566.719-.276 1.047-.08.728.436-.725 1.174 2.926 3.228 4.005 2.254.435-.393.499-.203.142.422s.055 1.721.916 2.435c1.292 1.073 1.743 1.049 2.584-.136.826-1.166.914-1.113.467.282-.681 2.124 1.282 3.529 2.401 1.719.584-.945-2.641-3.864-11.362-10.283-45.664-33.61-81.846-69.534-116.876-116.042-11.63-15.44-14.801-19.11-14.801-17.13m-13.907 43.768l4.927 6.033c.356.431.647.094.647-.75s-.347-1.533-.772-1.533-2.225-2.025-4.002-4.5-3.648-4.5-4.156-4.5 1.003 2.362 3.356 5.25m22.105 9.503c2.634 3.971 17.521 21.659 20.408 24.247 1.866 1.673 1.529 1.011-1.019-2l-10.853-13c-8.158-9.84-10.899-12.811-8.536-9.247m970.248 15.497c-21.015 26.584-51.97 59.105-77.446 81.366-30.107 26.307-67.946 53.747-95.747 69.432-3.986 2.249-7.923 4.765-8.75 5.592s-1.503 1.25-1.503.941-2.812 1.031-6.25 2.977c-10.825 6.129-40.798 20.971-52.25 25.873l-14 6.057c-4.435 1.993-22.382 8.724-35.5 13.314-39.216 13.723-88.382 24.71-133.263 29.781-7.551.853-8.384 2.417-1.288 2.417 5.644 0 31.5-3.334 39.321-5.07 2.348-.521 5.723-1.135 7.5-1.365 5.901-.762 24.069-4.638 36.23-7.728 47.579-12.089 85.216-25.959 128.5-47.353 34.496-17.051 71.678-40.027 102.4-63.276 5.933-4.49 25.671-20.224 27.185-21.671.597-.57 3.957-3.512 7.466-6.537 8.68-7.481 32.418-29.857 37.949-35.771l23.065-25.229c6.525-7.426 17.962-21.472 24.741-30.385 2.295-3.017 2.767-4.615 1.364-4.615-.457 0-4.833 5.063-9.724 11.25M226.5 1057c7.685 7.7 14.198 14 14.473 14s-5.788-6.3-13.473-14-14.198-14-14.473-14 5.788 6.3 13.473 14m-38.5 13.275c0 .151 3.488 3.639 7.75 7.75l7.75 7.475-7.475-7.75c-6.943-7.198-8.025-8.206-8.025-7.475m881 17.962c-8.126 7.662-27.902 24.482-34.993 29.763-1.846 1.375-5.64 4.344-8.432 6.599-18.521 14.957-62.803 43.418-90.075 57.893l-14 7.557c-12.949 7.202-45.147 21.111-68.25 29.483-7.288 2.64-13.082 4.969-12.877 5.175.436.436 24.846-8.231 38.665-13.728 40.05-15.931 86.504-41.088 122.462-66.315 10.91-7.655 37.709-27.849 40.891-30.814 2.519-2.346 4.293-2.417 2.499-.1-1.104 1.425-.94 1.396.877-.155 2.288-1.952 3.023-3.201 1.233-2.095-2.267 1.401-.79-1.281 1.75-3.178 1.513-1.129 5.675-4.663 9.25-7.852 14.449-12.889 20.168-18.461 19.842-19.331-.188-.504-4.167 2.69-8.842 7.098m-774.471 33.809c1.027 1.662 40.751 27.54 52.471 34.182 69.297 39.271 146.271 64.577 225.5 74.134 2.2.266 7.825.75 12.5 1.077 13.608.951 6.359-.998-12.588-3.385-17.047-2.147-22.023-2.956-46.129-7.504-76.426-14.418-150.084-44.543-215.266-88.039-9.38-6.259-16.799-10.968-16.488-10.465m109.614 17.837c4.203 2.076 11.853 5.47 17 7.543l10.607 4.278c.688.281 1.25.123 1.25-.35s-2.884-1.867-6.408-3.097a180.61 180.61 0 0 1-12.75-5.13c-17.028-7.77-22.717-9.673-9.699-3.244m228.607 49.849c2.337.211 6.163.211 8.5 0s.425-.383-4.25-.383-6.587.173-4.25.383M674.5 1203c2.75.403 5.428.343 5.95-.134.544-.496-1.59-.809-5-.732l-5.95.133 5 .733m-56.25 7.739a111.4 111.4 0 0 0 11.5 0c3.163-.198.575-.361-5.75-.361s-8.913.163-5.75.361m23 44a111.4 111.4 0 0 0 11.5 0c3.163-.198.575-.361-5.75-.361s-8.913.163-5.75.361m-.97 3.997c2.629.207 6.679.204 9-.005s.17-.379-4.78-.376-6.849.175-4.22.381m-6.491 3.005c3.459.196 8.859.195 12-.003s.311-.358-6.289-.356-9.17.164-5.711.359" fill="#fc443b"/></svg>