<svg xmlns="http://www.w3.org/2000/svg" width="1280" height="1264" viewBox="0 0 1280 1264" version="1.1"><path d="M 645.750 115.732 C 648.087 115.943, 651.913 115.943, 654.250 115.732 C 656.587 115.522, 654.675 115.349, 650 115.349 C 645.325 115.349, 643.413 115.522, 645.750 115.732 M 288.250 134.138 C 284.813 136.405, 282 138.683, 282 139.201 C 282 139.719, 282.634 139.509, 283.408 138.734 C 284.183 137.960, 287.108 135.856, 289.908 134.059 C 294.262 131.265, 295.810 129.971, 294.750 130.009 C 294.613 130.014, 291.688 131.872, 288.250 134.138 M 252.723 260.775 C 249.025 264.501, 246 267.890, 246 268.306 C 246 269.057, 256.250 259.046, 258.872 255.734 C 261.649 252.227, 259.274 254.174, 252.723 260.775 M 67.254 410.787 C 64.333 417.008, 53.128 446.307, 51.493 452 C 51.002 453.711, 51.101 454.184, 51.808 453.500 C 52.376 452.950, 54.063 448.675, 55.556 444 C 57.049 439.325, 59.064 433.700, 60.033 431.500 C 61.003 429.300, 62.388 426.070, 63.110 424.322 C 63.833 422.574, 64.848 421.406, 65.367 421.727 C 65.885 422.047, 65.981 421.779, 65.581 421.131 C 64.674 419.664, 67.937 410.843, 69.117 411.572 C 69.590 411.865, 69.723 411.441, 69.412 410.630 C 69.100 409.819, 69.367 408.183, 70.004 406.992 C 70.641 405.802, 70.992 404.659, 70.784 404.451 C 70.577 404.243, 68.988 407.094, 67.254 410.787 M 27.355 614.500 C 27.352 619.450, 27.521 621.601, 27.731 619.280 C 27.940 616.959, 27.943 612.909, 27.736 610.280 C 27.530 607.651, 27.358 609.550, 27.355 614.500 M 1276.657 620.250 C 1275.883 633.683, 1276.004 651.655, 1276.939 662 C 1277.346 666.505, 1277.666 657.420, 1277.742 639.250 C 1277.810 622.612, 1277.741 609, 1277.586 609 C 1277.432 609, 1277.014 614.063, 1276.657 620.250 M 1272.434 635.500 C 1272.433 649.250, 1272.574 655.014, 1272.747 648.308 C 1272.919 641.603, 1272.920 630.353, 1272.748 623.308 C 1272.576 616.264, 1272.434 621.750, 1272.434 635.500 M 1179.411 641 C 1179.411 650.625, 1179.561 654.563, 1179.745 649.750 C 1179.928 644.938, 1179.928 637.063, 1179.745 632.250 C 1179.561 627.438, 1179.411 631.375, 1179.411 641 M 15.297 682 L 15.287 693.500 16.190 686.186 C 16.721 681.878, 16.725 677.152, 16.200 674.686 C 15.483 671.329, 15.305 672.777, 15.297 682 M 1275.170 678 C 1275.186 680.475, 1275.560 683.625, 1276 685 C 1276.632 686.972, 1276.807 686.444, 1276.830 682.500 C 1276.846 679.750, 1276.473 676.600, 1276 675.500 C 1275.355 673.999, 1275.148 674.623, 1275.170 678 M 1274.199 692.500 C 1274.199 694.700, 1274.560 697.625, 1275 699 C 1275.684 701.136, 1275.801 700.918, 1275.801 697.500 C 1275.801 695.300, 1275.440 692.375, 1275 691 C 1274.316 688.864, 1274.199 689.082, 1274.199 692.500 M 1254.987 805.056 C 1254.320 807.835, 1254.050 810.384, 1254.387 810.721 C 1254.724 811.058, 1255 810.358, 1255 809.167 C 1255 807.975, 1255.498 807, 1256.107 807 C 1256.718 807, 1256.935 806.272, 1256.590 805.373 C 1256.246 804.479, 1256.445 803.169, 1257.031 802.462 C 1257.687 801.672, 1257.732 800.952, 1257.148 800.591 C 1256.626 800.269, 1255.653 802.278, 1254.987 805.056 M 1242.089 847.097 C 1241.414 849.351, 1241.107 851.440, 1241.407 851.740 C 1241.986 852.319, 1243.002 850.191, 1243.381 847.607 C 1243.506 846.755, 1243.922 845.745, 1244.304 845.362 C 1245.264 844.402, 1245.178 843, 1244.158 843 C 1243.695 843, 1242.764 844.844, 1242.089 847.097 M 105 852.171 C 105 852.781, 109.863 864.715, 112.303 870.092 C 113.153 871.967, 115.462 877.059, 117.433 881.409 C 119.404 885.758, 121.245 889.088, 121.525 888.808 C 121.805 888.528, 120.001 883.979, 117.517 878.698 C 115.033 873.417, 113 868.847, 113 868.543 C 113 868.239, 111.875 865.658, 110.500 862.808 C 109.125 859.958, 107.986 857.147, 107.968 856.563 C 107.936 855.489, 105 851.145, 105 852.171 M 1238.099 859.174 C 1236.952 862.569, 1236.191 865.524, 1236.407 865.741 C 1236.624 865.957, 1237.355 864.416, 1238.032 862.317 C 1238.709 860.218, 1239.528 858.050, 1239.852 857.500 C 1240.177 856.950, 1240.565 855.712, 1240.715 854.750 C 1241.262 851.239, 1240.135 853.145, 1238.099 859.174 M 1233 871.846 C 1233 872.862, 1232.364 874.999, 1231.587 876.596 C 1230.809 878.193, 1228.080 884.616, 1225.521 890.869 C 1222.962 897.122, 1220.468 902.972, 1219.979 903.869 C 1219.489 904.766, 1215.071 913.600, 1210.161 923.500 C 1205.251 933.400, 1199.550 944.425, 1197.493 948 C 1195.436 951.575, 1192.610 956.525, 1191.212 959 C 1184.062 971.659, 1176.206 983.469, 1175.099 983.225 C 1174.413 983.074, 1174.149 983.431, 1174.512 984.019 C 1174.875 984.607, 1174.448 986.193, 1173.563 987.544 C 1172.678 988.895, 1172.303 990, 1172.729 990 C 1173.156 990, 1175.693 986.406, 1178.368 982.013 C 1181.044 977.620, 1183.579 974.240, 1184.003 974.502 C 1184.427 974.764, 1184.712 974.196, 1184.637 973.239 C 1184.561 972.277, 1185.092 971.623, 1185.824 971.775 C 1186.553 971.926, 1186.869 971.598, 1186.528 971.045 C 1185.923 970.066, 1187.593 965.997, 1189.010 965 C 1189.401 964.725, 1190.478 963.023, 1191.403 961.217 C 1192.328 959.412, 1193.511 958.198, 1194.031 958.519 C 1194.570 958.852, 1194.694 958.365, 1194.319 957.388 C 1193.836 956.132, 1194.015 955.891, 1194.985 956.490 C 1195.876 957.042, 1196.071 956.923, 1195.579 956.128 C 1195.165 955.458, 1198.100 949.016, 1202.370 941.224 C 1211.014 925.448, 1219.717 907.348, 1227.960 888 C 1234.867 871.787, 1235.473 870, 1234.067 870 C 1233.480 870, 1233 870.831, 1233 871.846 M 88.630 897.523 C 88.296 898.392, 88.368 898.890, 88.791 898.629 C 89.213 898.368, 91.110 901.158, 93.007 904.827 C 103.236 924.619, 126.825 965.318, 129.042 967 C 129.404 967.275, 130.290 968.625, 131.011 970 C 133.510 974.770, 147.176 993.505, 148.834 994.434 C 150.198 995.199, 146.139 988.886, 144.053 987 C 143.749 986.725, 143.050 985.730, 142.500 984.788 C 141.950 983.847, 138.128 978.222, 134.008 972.288 C 124.002 957.881, 106.304 928.223, 99.224 914 C 96.076 907.675, 93.162 902.350, 92.750 902.167 C 92.338 901.983, 91.986 901.308, 91.968 900.667 C 91.951 900.025, 91.329 898.699, 90.586 897.721 C 89.390 896.143, 89.168 896.121, 88.630 897.523 M 153.093 1001.250 C 155.447 1004.138, 157.664 1006.852, 158.020 1007.283 C 158.376 1007.714, 158.667 1007.377, 158.667 1006.533 C 158.667 1005.690, 158.320 1005, 157.895 1005 C 157.471 1005, 155.670 1002.975, 153.893 1000.500 C 152.115 998.025, 150.245 996, 149.737 996 C 149.229 996, 150.740 998.362, 153.093 1001.250 M 213 1007.026 C 218.716 1013.928, 254.717 1050.088, 262 1056.243 C 265.025 1058.799, 269.424 1062.553, 271.776 1064.586 C 274.128 1066.618, 276.280 1068.053, 276.558 1067.775 C 276.837 1067.497, 273.112 1063.956, 268.282 1059.907 C 256.438 1049.978, 239.926 1033.928, 240.538 1032.939 C 240.810 1032.499, 240.506 1031.813, 239.862 1031.415 C 239.131 1030.963, 238.959 1031.124, 239.405 1031.845 C 239.797 1032.480, 239.806 1033, 239.425 1033 C 238.102 1033, 218.501 1011.617, 218.637 1010.323 C 218.712 1009.607, 218.420 1009.240, 217.988 1009.508 C 217.555 1009.775, 215.887 1008.497, 214.281 1006.667 C 209.299 1000.993, 208.247 1001.287, 213 1007.026 M 175.031 1010.500 C 175.813 1011.600, 177.479 1013.776, 178.733 1015.335 C 179.987 1016.894, 180.752 1018.592, 180.432 1019.109 C 180.113 1019.627, 180.275 1019.926, 180.792 1019.775 C 181.309 1019.624, 185.184 1023.438, 189.403 1028.250 C 193.622 1033.063, 197.317 1037, 197.615 1037 C 197.912 1037, 196.496 1035.088, 194.468 1032.750 C 192.440 1030.412, 187.609 1024.675, 183.734 1020 C 176.308 1011.042, 172.330 1006.700, 175.031 1010.500 M 226.500 1057 C 234.185 1064.700, 240.698 1071, 240.973 1071 C 241.248 1071, 235.185 1064.700, 227.500 1057 C 219.815 1049.300, 213.302 1043, 213.027 1043 C 212.752 1043, 218.815 1049.300, 226.500 1057 M 188 1070.275 C 188 1070.426, 191.488 1073.914, 195.750 1078.025 L 203.500 1085.500 196.025 1077.750 C 189.082 1070.552, 188 1069.544, 188 1070.275 M 404.143 1139.883 C 408.346 1141.959, 415.996 1145.353, 421.143 1147.426 C 426.289 1149.499, 431.063 1151.424, 431.750 1151.704 C 432.438 1151.985, 433 1151.827, 433 1151.354 C 433 1150.880, 430.116 1149.487, 426.592 1148.257 C 423.067 1147.027, 417.330 1144.718, 413.842 1143.127 C 396.814 1135.357, 391.125 1133.454, 404.143 1139.883 M 632.750 1189.732 C 635.087 1189.943, 638.913 1189.943, 641.250 1189.732 C 643.587 1189.522, 641.675 1189.349, 637 1189.349 C 632.325 1189.349, 630.413 1189.522, 632.750 1189.732 M 674.500 1203 C 677.250 1203.403, 679.928 1203.343, 680.450 1202.866 C 680.994 1202.370, 678.860 1202.057, 675.450 1202.134 L 669.500 1202.267 674.500 1203 M 618.250 1210.739 C 621.413 1210.937, 626.587 1210.937, 629.750 1210.739 C 632.913 1210.541, 630.325 1210.378, 624 1210.378 C 617.675 1210.378, 615.087 1210.541, 618.250 1210.739 M 641.250 1254.739 C 644.413 1254.937, 649.587 1254.937, 652.750 1254.739 C 655.913 1254.541, 653.325 1254.378, 647 1254.378 C 640.675 1254.378, 638.087 1254.541, 641.250 1254.739 M 640.280 1258.736 C 642.909 1258.943, 646.959 1258.940, 649.280 1258.731 C 651.601 1258.521, 649.450 1258.352, 644.500 1258.355 C 639.550 1258.358, 637.651 1258.530, 640.280 1258.736 M 633.789 1261.741 C 637.248 1261.937, 642.648 1261.936, 645.789 1261.738 C 648.930 1261.540, 646.100 1261.380, 639.500 1261.382 C 632.900 1261.384, 630.330 1261.546, 633.789 1261.741" stroke="none" fill="#fc5d3b" fill-rule="evenodd"/><path d="M 588.500 1.078 C 584.100 1.567, 574.244 2.657, 566.598 3.500 C 557.585 4.493, 552.311 5.516, 551.598 6.407 C 550.946 7.223, 547.453 8.051, 543 8.443 C 522.266 10.272, 478.749 19.927, 450.626 28.939 C 443.957 31.076, 432.425 34.704, 425 37.001 C 382.662 50.102, 332.111 74.016, 290.872 100.452 C 270.711 113.376, 265.048 117.473, 230.500 144.131 C 219.625 152.522, 207.329 162.988, 202.547 167.921 C 198.352 172.250, 198.622 173.528, 202.936 169.759 C 204.346 168.527, 203.949 169.202, 202.054 171.259 C 198.189 175.454, 197.793 175.702, 198.691 173.364 C 199.064 172.391, 198.875 171.884, 198.225 172.114 C 196.412 172.754, 180.902 188.235, 181.487 188.820 C 181.786 189.119, 183.711 187.822, 185.765 185.939 C 187.819 184.055, 187.267 184.873, 184.538 187.757 C 179.895 192.662, 177.182 194.895, 180.020 191.476 C 180.716 190.638, 180.980 189.647, 180.607 189.274 C 179.754 188.421, 154.074 213.894, 141.061 228.500 C 127.346 243.896, 111.172 264.321, 100 280.354 C 88.476 296.893, 72.932 321.493, 69.262 329 C 67.783 332.025, 66.219 334.650, 65.787 334.833 C 65.354 335.017, 65 335.589, 65 336.105 C 65 336.621, 62.130 343.221, 58.622 350.772 C 46.852 376.105, 42.143 386.448, 38.489 395 C 33.037 407.756, 24.705 431.691, 20.039 448 C 17.757 455.975, 15.239 464.750, 14.444 467.500 C 11.686 477.040, 5.091 510.722, 2.552 528.236 C 0.285 543.874, 0.011 548.841, 0.100 572.671 C 0.200 599.592, 0.561 604.020, 2.719 604.740 C 4.127 605.209, 6.714 600.463, 7.509 595.951 C 7.827 594.146, 8.270 592.373, 8.493 592.011 C 8.717 591.650, 9.384 588.687, 9.975 585.427 C 10.567 582.167, 11.895 575.225, 12.925 570 L 14.799 560.500 14.473 582 C 14.132 604.473, 14.821 616.221, 16.584 617.984 C 18.603 620.003, 22.965 611.383, 24.366 602.605 L 25.659 594.500 25.869 610.500 C 26.098 627.853, 26.977 637.055, 28.410 637.089 C 30.244 637.132, 31.972 629.209, 32.628 617.750 C 33.126 609.049, 33.641 606, 34.615 606 C 35.338 606, 36.351 605.212, 36.866 604.250 C 38.803 600.629, 42.995 582.880, 46.018 565.500 C 47.740 555.600, 49.785 544.125, 50.562 540 C 51.339 535.875, 52.180 531.375, 52.431 530 C 54.247 520.059, 62.270 486.937, 62.747 487.414 C 62.957 487.623, 62.709 490.101, 62.196 492.920 C 61.562 496.410, 61.603 498.254, 62.323 498.700 C 62.906 499.060, 63.566 498.801, 63.792 498.124 C 64.077 497.269, 64.584 497.417, 65.456 498.609 C 67.377 501.236, 69.506 499.709, 72.524 493.540 C 74.033 490.457, 75.545 488.211, 75.884 488.550 C 76.223 488.890, 76.349 496.968, 76.164 506.502 C 75.879 521.218, 76.085 524.378, 77.528 527.418 C 78.463 529.388, 79.792 531, 80.481 531 C 81.879 531, 85.225 522.372, 96.279 490.260 C 97 488.167, 97.659 487.449, 98.143 488.231 C 98.554 488.897, 99.087 489.230, 99.327 488.971 C 99.567 488.712, 103.681 480.175, 108.471 470 C 118.380 448.949, 128.559 429.231, 137.300 414.151 C 142.182 405.730, 143.038 403.617, 141.900 402.807 C 140.769 402.003, 140.814 401.911, 142.131 402.329 C 143.278 402.692, 144.752 401.308, 147.089 397.673 C 156.849 382.493, 189.843 337.810, 208.525 314.471 C 220.809 299.126, 242.027 275.104, 249.572 268 L 254.351 263.500 251.304 267.500 C 246.049 274.399, 239.329 285.343, 237.916 289.305 C 236.759 292.546, 236.768 293.238, 237.970 293.982 C 240.566 295.586, 244.457 292.810, 269.500 271.489 C 317.886 230.294, 356.963 202.151, 395.500 180.747 C 407.890 173.865, 438.135 159.402, 451 154.207 C 514.556 128.542, 581.930 115.453, 650 115.549 C 666.047 115.571, 692.824 116.661, 695.064 117.383 C 695.854 117.637, 699.891 118.084, 704.036 118.377 C 711.055 118.871, 713.983 119.198, 723 120.490 C 740.656 123.020, 754.436 125.642, 770.500 129.527 C 776.550 130.990, 781.950 132.285, 782.500 132.405 C 783.050 132.524, 784.400 132.915, 785.500 133.272 C 786.600 133.629, 788.656 134.120, 790.069 134.362 C 795.037 135.213, 834.974 148.939, 848.659 154.499 C 875.189 165.278, 901.923 179.267, 937.218 200.839 C 959.829 214.658, 995.142 243.255, 1020.932 268.630 C 1029.969 277.522, 1037.922 284.583, 1038.605 284.321 C 1039.288 284.059, 1040.397 284.892, 1041.069 286.172 C 1042.287 288.492, 1042.284 288.494, 1040.146 286.595 C 1035.816 282.751, 1038.189 286.316, 1045.276 294.301 C 1087.204 341.548, 1120.618 397.120, 1144.013 458.512 C 1160.401 501.516, 1170.899 548.640, 1175.532 600 C 1177.147 617.899, 1177.350 662.357, 1175.896 679.500 C 1175.118 688.672, 1171.544 718.745, 1170.459 725.250 C 1169.213 732.720, 1168.702 735.377, 1166.374 746.500 C 1153.974 805.733, 1129.963 867.618, 1100.230 916.975 C 1086.232 940.212, 1076.457 954.353, 1060.312 974.720 C 1052.389 984.715, 1049.211 989.469, 1049.614 990.720 C 1050.023 991.987, 1049.922 992.130, 1049.265 991.217 C 1048.585 990.272, 1046.146 992.383, 1040.022 999.217 C 1019.657 1021.941, 990.321 1049.228, 964.655 1069.319 C 950.642 1080.288, 917.105 1102.363, 899.500 1112.206 C 886.666 1119.382, 859.796 1133, 858.472 1133 C 858.237 1133, 854.714 1134.559, 850.644 1136.465 C 832.827 1144.806, 796.023 1157.450, 771.802 1163.550 C 745.915 1170.069, 707.315 1176.826, 683.500 1179.007 C 667.669 1180.456, 657.895 1181.258, 652.500 1181.549 C 645.727 1181.914, 593.379 1181.884, 589 1181.512 C 570.143 1179.913, 558.135 1178.813, 556.352 1178.521 C 555.170 1178.328, 551.570 1177.866, 548.352 1177.496 C 526.440 1174.974, 486.051 1166.063, 461.500 1158.335 C 429.224 1148.175, 404.353 1138.144, 374.643 1123.302 C 358.354 1115.166, 353.248 1113.574, 359.500 1118.583 C 364.498 1122.587, 411.463 1145.564, 428 1152.095 C 448.684 1160.265, 475.136 1168.882, 493.500 1173.433 C 501.750 1175.478, 510.075 1177.569, 512 1178.079 C 513.925 1178.590, 516.625 1179.197, 518 1179.429 C 519.375 1179.660, 525.225 1180.755, 531 1181.861 C 569.245 1189.188, 593.314 1191.345, 637 1191.362 C 663.420 1191.371, 676.720 1190.938, 689 1189.669 C 707.802 1187.726, 729.992 1184.652, 741 1182.465 C 745.125 1181.646, 749.625 1180.771, 751 1180.521 C 768.374 1177.363, 809.322 1165.999, 827.500 1159.292 C 835.750 1156.248, 844.182 1153.141, 846.238 1152.388 C 848.294 1151.634, 854.594 1149.040, 860.238 1146.621 C 912.797 1124.100, 957.836 1095.953, 1004.943 1056.186 C 1017.224 1045.819, 1053.464 1010.415, 1063.992 998.500 C 1066.908 995.200, 1068.587 993.564, 1067.722 994.865 C 1066.858 996.165, 1066.342 997.740, 1066.575 998.365 C 1067.442 1000.688, 1035.834 1034.742, 1014.500 1054.469 C 987.775 1079.181, 951.441 1106.555, 925 1121.898 C 921.975 1123.654, 918.617 1125.632, 917.538 1126.295 C 909.943 1130.959, 906.173 1133.019, 896 1138.062 C 851.683 1160.030, 790.624 1179.175, 741.500 1186.503 C 723.401 1189.204, 705.207 1191.117, 689.500 1191.971 C 679.050 1192.540, 661.950 1193.499, 651.500 1194.103 C 610.023 1196.500, 593.662 1195.935, 559.500 1190.924 C 548.523 1189.314, 518.454 1183.671, 509 1181.447 C 489.090 1176.763, 443.377 1161.881, 429.500 1155.565 C 427.850 1154.814, 422.467 1152.543, 417.538 1150.517 C 404.172 1145.024, 374.188 1130.120, 360 1121.916 C 353.125 1117.941, 346.600 1114.180, 345.500 1113.558 C 336.135 1108.265, 308 1089.071, 295 1079.107 C 266.380 1057.171, 249.955 1042.337, 222.335 1013.479 C 197.801 987.847, 184.031 971.105, 167.040 946.250 C 161.274 937.815, 159 935.455, 159 937.905 C 159 938.755, 169.016 954.046, 176.093 964 C 180.160 969.719, 197.761 991.406, 203.680 997.989 C 206.159 1000.746, 208.568 1002.767, 209.033 1002.479 C 209.499 1002.192, 211.594 1003.875, 213.690 1006.220 C 228.734 1023.052, 251.656 1045.644, 266.853 1058.618 C 272.449 1063.396, 276.809 1067.525, 276.540 1067.793 C 276.272 1068.061, 274.128 1066.618, 271.776 1064.586 C 269.424 1062.553, 265.025 1058.781, 262 1056.202 C 254.819 1050.080, 224.225 1019.592, 215.676 1010.039 C 212.004 1005.936, 209 1003.036, 209 1003.594 C 209 1005.239, 230.499 1028.344, 246.597 1044 C 287.843 1084.113, 336.613 1118.324, 388.789 1143.745 C 397.544 1148.010, 405.786 1151.966, 407.104 1152.535 C 408.422 1153.105, 414.115 1155.540, 419.755 1157.947 C 425.395 1160.354, 429.837 1162.496, 429.626 1162.708 C 429.141 1163.192, 404.254 1152.567, 393.123 1147.123 C 387.403 1144.326, 383.913 1143.185, 382.123 1143.528 C 380.064 1143.923, 379.918 1143.849, 381.444 1143.184 C 383.039 1142.490, 381.256 1141.232, 371.502 1136.170 C 362.528 1131.513, 359.396 1130.308, 358.714 1131.251 C 358.066 1132.147, 357.956 1132.044, 358.322 1130.887 C 358.972 1128.833, 352.013 1124.722, 349.351 1125.587 C 347.940 1126.046, 347.829 1125.954, 348.885 1125.202 C 350 1124.407, 349.806 1123.971, 347.885 1122.961 C 346.573 1122.271, 340.929 1118.847, 335.341 1115.353 C 324.900 1108.823, 323.359 1108.091, 324.601 1110.250 C 325.019 1110.976, 324.939 1111.151, 324.410 1110.667 C 323.910 1110.208, 323.489 1109.308, 323.476 1108.667 C 323.463 1108.025, 322.693 1107.560, 321.765 1107.632 C 320.837 1107.705, 320.173 1107.311, 320.289 1106.757 C 320.405 1106.203, 319.875 1105.523, 319.111 1105.245 C 318.260 1104.936, 317.992 1105.178, 318.420 1105.870 C 318.804 1106.492, 318.622 1107, 318.015 1107 C 317.409 1107, 317.045 1106.314, 317.206 1105.477 C 317.368 1104.639, 316.090 1103.053, 314.366 1101.952 C 311.694 1100.245, 311.148 1100.171, 310.658 1101.449 C 310.250 1102.512, 312.931 1104.843, 319.887 1109.474 C 329.987 1116.198, 332.248 1117.279, 329.872 1114.250 C 328.630 1112.666, 328.665 1112.630, 330.239 1113.863 C 331.195 1114.613, 331.746 1115.602, 331.463 1116.061 C 330.814 1117.110, 352.918 1130.310, 372 1140.269 C 387.317 1148.264, 409.608 1158.474, 425.788 1164.908 C 446.568 1173.171, 488.866 1186.379, 504.212 1189.397 C 505.471 1189.645, 510.325 1190.765, 515 1191.888 C 525.757 1194.470, 548.798 1198.391, 565 1200.395 C 596.737 1204.321, 611.861 1205.241, 646.500 1205.353 C 671.990 1205.435, 677.452 1205.658, 670.500 1206.330 C 659.117 1207.431, 593.054 1207.745, 582.813 1206.747 C 562.551 1204.773, 550.024 1203.392, 544 1202.471 C 530.738 1200.443, 526.486 1199.724, 520 1198.413 C 463.518 1186.995, 397.259 1160.346, 344 1127.628 C 333.465 1121.156, 327.422 1117.184, 310.500 1105.606 C 304.057 1101.198, 278.810 1081.706, 272.929 1076.600 C 270.965 1074.895, 268.040 1072.416, 266.429 1071.090 C 254.467 1061.248, 221.607 1028.877, 208.477 1014 C 185.650 988.134, 161.315 954.513, 143.335 924 C 134.954 909.776, 133.332 906.789, 126.171 892.386 C 113.958 867.819, 109.203 856.841, 100.029 832.019 C 96.679 822.954, 93.517 815.117, 93.002 814.602 C 88.626 810.226, 95.076 831.990, 106.456 860 C 113.796 878.066, 122.542 897.065, 130.535 912.304 C 135.742 922.232, 136.319 922.961, 137.656 921.304 C 138.988 919.652, 139.016 919.693, 137.995 921.797 C 137.032 923.779, 137.525 925.221, 141.583 932.297 C 162.259 968.353, 190.498 1006.791, 218.945 1037.599 C 222.550 1041.504, 220.887 1039.935, 215.250 1034.112 C 209.613 1028.290, 205 1023.993, 205 1024.563 C 205 1025.133, 205.563 1026.241, 206.250 1027.023 C 206.938 1027.806, 206.477 1027.592, 205.226 1026.547 C 203.686 1025.260, 203.323 1024.418, 204.102 1023.937 C 204.861 1023.468, 203.899 1021.748, 201.264 1018.864 C 194.601 1011.570, 175.005 986.252, 165.367 972.487 C 146.481 945.511, 134.374 924.782, 115.730 887.500 C 101.530 859.104, 97.882 852.793, 96.473 854.196 C 95.518 855.148, 97.652 863.643, 101.092 872.576 C 102.661 876.649, 103.693 880.635, 103.387 881.433 C 103.081 882.232, 106.385 889.839, 110.729 898.340 C 115.073 906.840, 117.984 913.547, 117.198 913.246 C 115.726 912.681, 111.027 903.527, 111.010 901.191 C 111.004 900.457, 110.493 900.195, 109.845 900.595 C 109.165 901.016, 108.961 900.872, 109.349 900.245 C 110.437 898.484, 108.976 896.081, 107.167 896.657 C 105.955 897.044, 105.849 896.937, 106.778 896.268 C 107.762 895.559, 106.784 892.835, 102.527 884.424 C 91.291 862.222, 76.272 820.760, 68.985 791.827 C 67.831 787.247, 66.459 782.150, 65.935 780.500 C 64.130 774.816, 58.119 744.470, 56.030 730.500 C 54.879 722.800, 53.748 715.825, 53.518 715 C 53.287 714.175, 52.821 709.450, 52.481 704.500 C 52.141 699.550, 51.696 694.825, 51.491 694 C 50.826 691.320, 49.751 673.909, 49.118 655.581 C 48.630 641.441, 48.202 637.563, 47.088 637.194 C 45.888 636.796, 45.775 640.005, 46.333 658.613 C 47.200 687.537, 50.837 721.695, 55.568 745.346 C 56.354 749.281, 57.661 756.100, 58.472 760.500 C 61.538 777.142, 71.263 812.218, 78.019 831 C 80.294 837.325, 82.524 843.625, 82.975 845 C 93.245 876.357, 121.667 932.185, 145.303 967.427 C 148.596 972.337, 151.349 977.062, 151.421 977.927 C 151.728 981.640, 158.910 992.551, 171.873 1009 C 175.990 1014.225, 179.616 1018.725, 179.930 1019 C 180.243 1019.275, 182.064 1021.525, 183.975 1024 L 187.450 1028.500 184.148 1025.750 C 178.767 1021.268, 176.057 1022.640, 179.648 1028.027 C 182.542 1032.369, 178.868 1028.263, 168.439 1015.500 C 123.434 960.422, 88.319 898.433, 64.160 831.411 C 60.772 822.011, 58 813.799, 58 813.161 C 58 812.522, 57.550 812, 57 812 C 54.365 812, 57.004 821.181, 68.209 851 C 92.684 916.131, 129.915 978.806, 176.323 1033 C 189.267 1048.115, 214.851 1075, 216.291 1075 C 216.915 1075, 215.192 1072.652, 212.462 1069.781 L 207.500 1064.562 213.003 1069.531 C 216.285 1072.494, 218.101 1074.814, 217.503 1075.279 C 216.893 1075.753, 217.712 1077.124, 219.592 1078.779 C 221.292 1080.276, 227.592 1085.970, 233.592 1091.433 C 244.624 1101.479, 274.516 1125.629, 292.051 1138.661 C 344.465 1177.618, 408.968 1210.519, 469.235 1229.038 C 483.525 1233.429, 514.405 1241.591, 520.043 1242.467 C 521.944 1242.762, 528 1243.921, 533.500 1245.041 C 539 1246.162, 548.675 1247.914, 555 1248.934 C 561.325 1249.955, 565.483 1250.837, 564.239 1250.895 C 561.718 1251.012, 547.921 1248.917, 532 1245.999 C 526.225 1244.940, 520.375 1243.871, 519 1243.623 C 508.602 1241.747, 495.147 1238.546, 477 1233.631 C 441.393 1223.986, 400.021 1208.138, 366.672 1191.366 C 357.740 1186.875, 353.183 1185.100, 351.672 1185.523 C 350.125 1185.956, 349.894 1185.858, 350.869 1185.183 C 351.888 1184.477, 349.967 1183.002, 343.369 1179.422 C 338.491 1176.775, 330.547 1172.222, 325.715 1169.304 C 320.883 1166.387, 316.702 1164, 316.424 1164 C 316.146 1164, 314.700 1163.148, 313.210 1162.107 C 311.719 1161.066, 304.875 1156.506, 298 1151.974 C 231.680 1108.258, 168.701 1045.538, 124.308 979 C 99.223 941.400, 82.222 909.727, 64.528 867.629 C 43.677 818.017, 29.010 761.869, 22.437 706.500 C 21.523 698.800, 20.612 691.150, 20.412 689.500 C 18.550 674.141, 16.779 667.400, 14.910 668.555 C 13.677 669.318, 13.809 697.239, 15.102 709 C 18.953 744.027, 29.785 793.585, 41.657 830.500 C 61.800 893.131, 94.771 957.128, 133.361 1008.500 C 150.091 1030.772, 165.760 1049.398, 164.534 1045.556 C 163.929 1043.661, 163.965 1043.658, 165.957 1045.461 C 168.388 1047.661, 168.524 1048.138, 166.500 1047.362 C 165.675 1047.045, 165 1047.216, 165 1047.741 C 165 1049.433, 205.076 1089.970, 218.566 1101.923 C 235.205 1116.666, 234.864 1116.382, 251.672 1129.467 C 275.220 1147.800, 277.108 1149.092, 279.410 1148.451 C 280.933 1148.027, 281.125 1148.128, 280.119 1148.824 C 278.637 1149.850, 288.707 1157.030, 310.487 1170.476 C 366.148 1204.842, 432.572 1232.110, 498 1247.452 C 514.898 1251.415, 531.597 1254.707, 541.500 1256.029 C 545.350 1256.543, 549.625 1257.168, 551 1257.417 C 554.087 1257.976, 570.733 1259.953, 577.500 1260.564 C 580.250 1260.813, 584.525 1261.225, 587 1261.480 C 610.346 1263.887, 655.212 1264.377, 678.500 1262.479 C 681.250 1262.255, 687.100 1261.802, 691.500 1261.473 C 701.891 1260.694, 708.546 1260.091, 713.500 1259.479 C 715.700 1259.208, 719.750 1258.751, 722.500 1258.464 C 746.078 1256.007, 779.810 1249.242, 810.500 1240.816 C 894.286 1217.812, 974.594 1176.624, 1040.500 1122.857 C 1047.100 1117.473, 1054.075 1111.662, 1056 1109.945 C 1057.925 1108.228, 1062.875 1103.840, 1067 1100.194 C 1077.120 1091.249, 1102.486 1065.796, 1113.535 1053.500 C 1139.108 1025.041, 1166.914 987.610, 1184.479 958 C 1215.450 905.791, 1241.192 844.021, 1254.492 790 C 1255.914 784.225, 1257.468 778.150, 1257.946 776.500 C 1258.804 773.534, 1261.419 761.309, 1262.438 755.500 C 1266.689 731.272, 1269.028 716.471, 1270.092 707.077 C 1270.803 700.794, 1271.564 696.193, 1271.784 696.851 C 1272.140 697.921, 1269.354 725.502, 1268.384 730.500 C 1268.171 731.600, 1267.307 736.775, 1266.464 742 C 1265.622 747.225, 1264.699 752.625, 1264.414 754 C 1264.129 755.375, 1263.259 759.875, 1262.480 764 C 1254.625 805.618, 1240.956 849.947, 1222.995 892.051 C 1208.787 925.357, 1194.686 951.729, 1171.543 988.276 C 1165.002 998.607, 1163.692 1002.399, 1168.016 998.485 C 1170.064 996.632, 1184 976.646, 1184 975.563 C 1184 975.241, 1185.747 972.395, 1187.882 969.239 C 1190.017 966.082, 1192.729 961.700, 1193.908 959.500 C 1195.087 957.300, 1197.005 953.925, 1198.171 952 C 1202.781 944.386, 1212.541 925.861, 1218.192 914 C 1249.482 848.323, 1269.212 778.177, 1276.556 706.500 C 1276.838 703.750, 1277.519 697.450, 1278.070 692.500 C 1278.620 687.550, 1279.325 667.750, 1279.635 648.500 C 1280.075 621.253, 1279.847 609.180, 1278.608 594 C 1276.249 565.097, 1276.108 563.741, 1273.934 549.042 C 1272.832 541.594, 1271.715 533.925, 1271.451 532 C 1269.948 521.045, 1261.728 485, 1255.944 464 C 1250.469 444.127, 1237.061 407.099, 1228.833 389.135 C 1227.162 385.488, 1224.448 378.453, 1222.802 373.502 C 1200.596 306.729, 1137.128 214.558, 1076.527 161.076 C 1064.047 150.062, 1037.321 128.512, 1028.685 122.500 C 1025.526 120.300, 1020.200 116.543, 1016.850 114.151 C 1003.256 104.444, 969.265 84, 966.719 84 C 966.149 84, 958.216 80.269, 949.091 75.708 C 925.935 64.136, 921.449 62.201, 877 44.623 C 841.130 30.437, 830.217 26.684, 807 20.549 C 783.327 14.293, 770.604 11.484, 753 8.627 C 729.734 4.852, 724.513 4.121, 712.500 2.951 C 706.450 2.362, 699.925 1.630, 698 1.324 C 691.932 0.360, 596.878 0.146, 588.500 1.078 M 309.972 101.802 C 284.742 117.148, 269.841 127.281, 249.500 142.924 C 222.517 163.676, 193.330 190.054, 180.262 205.500 C 175.861 210.701, 174.410 212.832, 176.823 210.547 C 181.757 205.877, 182.412 206.860, 177.759 211.952 C 175.977 213.904, 177.102 213.040, 180.259 210.034 C 183.417 207.028, 186 204.371, 186 204.129 C 186 203.888, 185.097 204.507, 183.994 205.506 C 180.173 208.964, 180.647 205.945, 184.565 201.872 C 193.477 192.606, 219.932 168.236, 231.797 158.361 C 256.209 138.047, 287.677 115.862, 315.250 99.529 C 323.713 94.516, 325.912 93, 324.722 93 C 324.569 93, 317.931 96.961, 309.972 101.802 M 288.500 133.994 C 284.721 136.506, 282.458 138.716, 282.388 139.965 C 282.326 141.055, 282.644 141.720, 283.094 141.442 C 283.544 141.164, 283.708 140.388, 283.458 139.718 C 283.207 139.046, 285.691 136.770, 289.001 134.640 C 294.160 131.320, 295.810 129.990, 294.750 130.003 C 294.613 130.005, 291.800 131.801, 288.500 133.994 M 249.613 166.220 C 230.113 182.188, 208.956 201.999, 191.016 221.088 C 172.802 240.470, 183.534 230.798, 207.654 206.093 C 217.638 195.867, 226.185 187.871, 226.645 188.325 C 227.106 188.779, 226.700 189.589, 225.742 190.125 C 224.784 190.661, 224 191.597, 224 192.205 C 224 192.813, 224.916 192.481, 226.035 191.468 C 227.155 190.455, 227.846 189.040, 227.571 188.324 C 227.039 186.938, 240.076 174.869, 255.750 162.237 C 263.839 155.717, 265.768 153.955, 264.750 154.015 C 264.613 154.023, 257.801 159.515, 249.613 166.220 M 252.723 260.775 C 249.025 264.501, 246 267.891, 246 268.308 C 246 268.725, 247.601 267.466, 249.557 265.510 C 251.513 263.553, 253.608 262.258, 254.212 262.631 C 254.888 263.049, 255.023 262.846, 254.563 262.101 C 254.138 261.414, 254.610 260.163, 255.660 259.197 C 257.847 257.184, 260.412 254, 259.846 254 C 259.626 254, 256.421 257.049, 252.723 260.775 M 103.390 331.750 C 100.254 337.113, 96.682 343.105, 95.451 345.066 C 85.354 361.167, 52.343 435.677, 54.398 437.731 C 54.619 437.953, 55.357 436.416, 56.038 434.317 C 59.866 422.502, 81.238 376, 82.840 376 C 83.326 376, 85.150 372.599, 86.896 368.441 C 88.641 364.284, 93.265 354.345, 97.172 346.356 C 102.340 335.788, 104.537 332.193, 105.232 333.164 C 105.929 334.138, 106.023 333.990, 105.576 332.620 C 105.205 331.484, 105.977 329.009, 107.524 326.370 C 108.932 323.966, 109.861 322, 109.588 322 C 109.315 322, 106.526 326.387, 103.390 331.750 M 67.254 410.787 C 64.333 417.008, 53.128 446.307, 51.493 452 C 51.002 453.711, 51.101 454.184, 51.808 453.500 C 52.376 452.950, 54.063 448.675, 55.556 444 C 57.049 439.325, 59.064 433.700, 60.033 431.500 C 61.003 429.300, 62.388 426.070, 63.110 424.322 C 63.833 422.574, 64.848 421.406, 65.367 421.727 C 65.885 422.047, 65.981 421.779, 65.581 421.131 C 64.674 419.664, 67.937 410.843, 69.117 411.572 C 69.590 411.865, 69.723 411.441, 69.412 410.630 C 69.100 409.819, 69.367 408.183, 70.004 406.992 C 70.641 405.802, 70.992 404.659, 70.784 404.451 C 70.577 404.243, 68.988 407.094, 67.254 410.787 M 39.612 503.750 C 37.195 515.001, 34.230 531.621, 31.986 546.500 C 30.907 553.650, 29.805 560.737, 29.537 562.250 C 29.269 563.763, 29.394 565, 29.814 565 C 30.234 565, 31.822 557.013, 33.343 547.250 C 35.690 532.185, 38.664 515.230, 40.316 507.500 C 41.234 503.202, 42.101 496, 41.699 496 C 41.467 496, 40.527 499.488, 39.612 503.750 M 27.355 614.500 C 27.352 619.450, 27.521 621.601, 27.731 619.280 C 27.940 616.959, 27.943 612.909, 27.736 610.280 C 27.530 607.651, 27.358 609.550, 27.355 614.500 M 1276.657 620.250 C 1275.883 633.683, 1276.004 651.655, 1276.939 662 C 1277.346 666.505, 1277.666 657.420, 1277.742 639.250 C 1277.810 622.612, 1277.741 609, 1277.586 609 C 1277.432 609, 1277.014 614.063, 1276.657 620.250 M 1272.434 635.500 C 1272.433 649.250, 1272.574 655.014, 1272.747 648.308 C 1272.919 641.603, 1272.920 630.353, 1272.748 623.308 C 1272.576 616.264, 1272.434 621.750, 1272.434 635.500 M 1179.411 641 C 1179.411 650.625, 1179.561 654.563, 1179.745 649.750 C 1179.928 644.938, 1179.928 637.063, 1179.745 632.250 C 1179.561 627.438, 1179.411 631.375, 1179.411 641 M 15.297 682 L 15.287 693.500 16.190 686.186 C 16.721 681.878, 16.725 677.152, 16.200 674.686 C 15.483 671.329, 15.305 672.777, 15.297 682 M 1275.170 678 C 1275.186 680.475, 1275.560 683.625, 1276 685 C 1276.632 686.972, 1276.807 686.444, 1276.830 682.500 C 1276.846 679.750, 1276.473 676.600, 1276 675.500 C 1275.355 673.999, 1275.148 674.623, 1275.170 678 M 1274.199 692.500 C 1274.199 694.700, 1274.560 697.625, 1275 699 C 1275.684 701.136, 1275.801 700.918, 1275.801 697.500 C 1275.801 695.300, 1275.440 692.375, 1275 691 C 1274.316 688.864, 1274.199 689.082, 1274.199 692.500 M 1254.987 805.056 C 1254.320 807.835, 1254.050 810.384, 1254.387 810.721 C 1254.724 811.058, 1255 810.358, 1255 809.167 C 1255 807.975, 1255.498 807, 1256.107 807 C 1256.718 807, 1256.935 806.272, 1256.590 805.373 C 1256.246 804.479, 1256.445 803.169, 1257.031 802.462 C 1257.687 801.672, 1257.732 800.952, 1257.148 800.591 C 1256.626 800.269, 1255.653 802.278, 1254.987 805.056 M 1242.089 847.097 C 1241.414 849.351, 1241.107 851.440, 1241.407 851.740 C 1241.986 852.319, 1243.002 850.191, 1243.381 847.607 C 1243.506 846.755, 1243.922 845.745, 1244.304 845.362 C 1245.264 844.402, 1245.178 843, 1244.158 843 C 1243.695 843, 1242.764 844.844, 1242.089 847.097 M 105 852.171 C 105 852.781, 109.863 864.715, 112.303 870.092 C 113.153 871.967, 115.462 877.059, 117.433 881.409 C 119.404 885.758, 121.245 889.088, 121.525 888.808 C 121.805 888.528, 120.001 883.979, 117.517 878.698 C 115.033 873.417, 113 868.847, 113 868.543 C 113 868.239, 111.875 865.658, 110.500 862.808 C 109.125 859.958, 107.986 857.147, 107.968 856.563 C 107.936 855.489, 105 851.145, 105 852.171 M 1238.099 859.174 C 1236.952 862.569, 1236.191 865.524, 1236.407 865.741 C 1236.624 865.957, 1237.355 864.416, 1238.032 862.317 C 1238.709 860.218, 1239.528 858.050, 1239.852 857.500 C 1240.177 856.950, 1240.565 855.712, 1240.715 854.750 C 1241.262 851.239, 1240.135 853.145, 1238.099 859.174 M 1233 871.846 C 1233 872.862, 1232.364 874.999, 1231.587 876.596 C 1230.809 878.193, 1228.080 884.616, 1225.521 890.869 C 1222.962 897.122, 1220.468 902.972, 1219.979 903.869 C 1219.489 904.766, 1215.071 913.600, 1210.161 923.500 C 1205.251 933.400, 1199.551 944.425, 1197.494 948 C 1195.438 951.575, 1192.863 956.075, 1191.772 958 C 1188.976 962.935, 1177.437 981.765, 1174.460 986.250 C 1173.091 988.313, 1172.315 989.997, 1172.735 989.993 C 1173.156 989.990, 1176.650 984.785, 1180.500 978.427 C 1184.350 972.069, 1187.989 966.328, 1188.586 965.669 C 1190.612 963.434, 1209.262 928.711, 1215.724 915.143 C 1222.017 901.931, 1233.012 876.710, 1234.423 872.250 C 1234.857 870.877, 1234.719 870, 1234.067 870 C 1233.480 870, 1233 870.831, 1233 871.846 M 89 896.434 C 89 897.207, 99.378 917.288, 104.796 927 C 109.117 934.745, 128.350 966.475, 129.042 967 C 129.404 967.275, 130.290 968.625, 131.011 970 C 133.510 974.770, 147.176 993.505, 148.834 994.434 C 150.198 995.199, 146.139 988.886, 144.053 987 C 143.749 986.725, 143.050 985.730, 142.500 984.788 C 141.950 983.847, 138.128 978.222, 134.008 972.288 C 124.002 957.881, 106.304 928.223, 99.224 914 C 96.076 907.675, 93.162 902.350, 92.750 902.167 C 92.338 901.983, 91.986 901.308, 91.968 900.667 C 91.932 899.349, 89 895.168, 89 896.434 M 122.505 921.576 C 124.528 925.192, 125.929 928.404, 125.620 928.714 C 123.899 930.434, 146.881 966.261, 166.857 993 C 173.226 1001.525, 178.677 1008.725, 178.971 1009 C 179.265 1009.275, 183.529 1014.225, 188.448 1020 C 214.429 1050.508, 250.670 1085.228, 277.009 1104.845 L 281.500 1108.189 277.500 1104.593 C 275.300 1102.614, 273.624 1100.513, 273.775 1099.924 C 273.926 1099.334, 273.572 1099.146, 272.988 1099.507 C 271.161 1100.636, 249.425 1081.466, 225.950 1058.021 C 194.598 1026.710, 174.494 1002.272, 151.481 967.500 C 141.173 951.924, 137.044 945.145, 124.223 922.750 C 121.783 918.487, 119.571 915, 119.307 915 C 119.044 915, 120.483 917.959, 122.505 921.576 M 167 957.482 C 167 960.453, 185.368 984.737, 204.454 1007 C 216.375 1020.906, 244.770 1049.780, 258.500 1061.959 C 275.103 1076.686, 297.321 1094.091, 298.796 1093.525 C 299.515 1093.249, 299.843 1093.445, 299.524 1093.961 C 298.799 1095.135, 302.450 1097.189, 303.529 1096.215 C 303.964 1095.822, 304.028 1096.012, 303.671 1096.637 C 303.314 1097.262, 303.726 1098.358, 304.587 1099.072 C 305.879 1100.145, 306.330 1100.121, 307.171 1098.936 C 307.997 1097.770, 308.085 1097.823, 307.638 1099.218 C 306.957 1101.342, 308.920 1102.747, 310.039 1100.937 C 310.623 1099.992, 307.398 1097.073, 298.677 1090.654 C 253.013 1057.044, 216.831 1021.120, 181.801 974.612 C 170.171 959.172, 167 955.502, 167 957.482 M 153.093 1001.250 C 155.447 1004.138, 157.664 1006.852, 158.020 1007.283 C 158.376 1007.714, 158.667 1007.377, 158.667 1006.533 C 158.667 1005.690, 158.320 1005, 157.895 1005 C 157.471 1005, 155.670 1002.975, 153.893 1000.500 C 152.115 998.025, 150.245 996, 149.737 996 C 149.229 996, 150.740 998.362, 153.093 1001.250 M 175.198 1010.753 C 177.832 1014.724, 192.719 1032.412, 195.606 1035 C 197.472 1036.673, 197.135 1036.011, 194.587 1033 C 192.493 1030.525, 187.609 1024.675, 183.734 1020 C 175.576 1010.160, 172.835 1007.189, 175.198 1010.753 M 1145.446 1026.250 C 1124.431 1052.834, 1093.476 1085.355, 1068 1107.616 C 1037.893 1133.923, 1000.054 1161.363, 972.253 1177.048 C 968.267 1179.297, 964.330 1181.813, 963.503 1182.640 C 962.676 1183.466, 962 1183.890, 962 1183.581 C 962 1183.272, 959.188 1184.612, 955.750 1186.558 C 944.925 1192.687, 914.952 1207.529, 903.500 1212.431 C 897.450 1215.021, 891.150 1217.747, 889.500 1218.488 C 885.065 1220.481, 867.118 1227.212, 854 1231.802 C 814.784 1245.525, 765.618 1256.512, 720.737 1261.583 C 713.186 1262.436, 712.353 1264, 719.449 1264 C 725.093 1264, 750.949 1260.666, 758.770 1258.930 C 761.118 1258.409, 764.493 1257.795, 766.270 1257.565 C 772.171 1256.803, 790.339 1252.927, 802.500 1249.837 C 850.079 1237.748, 887.716 1223.878, 931 1202.484 C 965.496 1185.433, 1002.678 1162.457, 1033.400 1139.208 C 1039.333 1134.718, 1059.071 1118.984, 1060.585 1117.537 C 1061.182 1116.967, 1064.542 1114.025, 1068.051 1111 C 1076.731 1103.519, 1100.469 1081.143, 1106 1075.229 C 1118.410 1061.959, 1122.187 1057.827, 1129.065 1050 C 1135.590 1042.574, 1147.027 1028.528, 1153.806 1019.615 C 1156.101 1016.598, 1156.573 1015, 1155.170 1015 C 1154.713 1015, 1150.337 1020.063, 1145.446 1026.250 M 226.500 1057 C 234.185 1064.700, 240.698 1071, 240.973 1071 C 241.248 1071, 235.185 1064.700, 227.500 1057 C 219.815 1049.300, 213.302 1043, 213.027 1043 C 212.752 1043, 218.815 1049.300, 226.500 1057 M 188 1070.275 C 188 1070.426, 191.488 1073.914, 195.750 1078.025 L 203.500 1085.500 196.025 1077.750 C 189.082 1070.552, 188 1069.544, 188 1070.275 M 1069 1088.237 C 1060.874 1095.899, 1041.098 1112.719, 1034.007 1118 C 1032.161 1119.375, 1028.367 1122.344, 1025.575 1124.599 C 1007.054 1139.556, 962.772 1168.017, 935.500 1182.492 C 930.550 1185.119, 924.250 1188.520, 921.500 1190.049 C 908.551 1197.251, 876.353 1211.160, 853.250 1219.532 C 845.962 1222.172, 840.168 1224.501, 840.373 1224.707 C 840.809 1225.143, 865.219 1216.476, 879.038 1210.979 C 919.088 1195.048, 965.542 1169.891, 1001.500 1144.664 C 1012.410 1137.009, 1039.209 1116.815, 1042.391 1113.850 C 1044.910 1111.504, 1046.684 1111.433, 1044.890 1113.750 C 1043.786 1115.175, 1043.950 1115.146, 1045.767 1113.595 C 1048.055 1111.643, 1048.790 1110.394, 1047 1111.500 C 1044.733 1112.901, 1046.210 1110.219, 1048.750 1108.322 C 1050.263 1107.193, 1054.425 1103.659, 1058 1100.470 C 1072.449 1087.581, 1078.168 1082.009, 1077.842 1081.139 C 1077.654 1080.635, 1073.675 1083.829, 1069 1088.237 M 294.529 1122.046 C 295.556 1123.708, 335.280 1149.586, 347 1156.228 C 416.297 1195.499, 493.271 1220.805, 572.500 1230.362 C 574.700 1230.628, 580.325 1231.112, 585 1231.439 C 598.608 1232.390, 591.359 1230.441, 572.412 1228.054 C 555.365 1225.907, 550.389 1225.098, 526.283 1220.550 C 449.857 1206.132, 376.199 1176.007, 311.017 1132.511 C 301.637 1126.252, 294.218 1121.543, 294.529 1122.046 M 404.143 1139.883 C 408.346 1141.959, 415.996 1145.353, 421.143 1147.426 C 426.289 1149.499, 431.063 1151.424, 431.750 1151.704 C 432.438 1151.985, 433 1151.827, 433 1151.354 C 433 1150.880, 430.116 1149.487, 426.592 1148.257 C 423.067 1147.027, 417.330 1144.718, 413.842 1143.127 C 396.814 1135.357, 391.125 1133.454, 404.143 1139.883 M 632.750 1189.732 C 635.087 1189.943, 638.913 1189.943, 641.250 1189.732 C 643.587 1189.522, 641.675 1189.349, 637 1189.349 C 632.325 1189.349, 630.413 1189.522, 632.750 1189.732 M 674.500 1203 C 677.250 1203.403, 679.928 1203.343, 680.450 1202.866 C 680.994 1202.370, 678.860 1202.057, 675.450 1202.134 L 669.500 1202.267 674.500 1203 M 618.250 1210.739 C 621.413 1210.937, 626.587 1210.937, 629.750 1210.739 C 632.913 1210.541, 630.325 1210.378, 624 1210.378 C 617.675 1210.378, 615.087 1210.541, 618.250 1210.739 M 641.250 1254.739 C 644.413 1254.937, 649.587 1254.937, 652.750 1254.739 C 655.913 1254.541, 653.325 1254.378, 647 1254.378 C 640.675 1254.378, 638.087 1254.541, 641.250 1254.739 M 640.280 1258.736 C 642.909 1258.943, 646.959 1258.940, 649.280 1258.731 C 651.601 1258.521, 649.450 1258.352, 644.500 1258.355 C 639.550 1258.358, 637.651 1258.530, 640.280 1258.736 M 633.789 1261.741 C 637.248 1261.937, 642.648 1261.936, 645.789 1261.738 C 648.930 1261.540, 646.100 1261.380, 639.500 1261.382 C 632.900 1261.384, 630.330 1261.546, 633.789 1261.741" stroke="none" fill="#fc443b" fill-rule="evenodd"/></svg>